<svg version="1.0" xmlns="http://www.w3.org/2000/svg" xmlns:xlink="http://www.w3.org/1999/xlink" x="0px" y="0px"
	 viewBox="0 0 72 24" enable-background="new 0 0 72 24" xml:space="preserve">
<path fill="none" stroke="#FFFFFF" stroke-miterlimit="10" d="M70.6,9.8c0,2.5-1,4.7-2.6,6.3c-1.6,1.6-3.8,2.6-6.3,2.6H41.4
	c-0.2,0-0.3,0.1-0.5,0.2l-4.4,4c-0.3,0.2-0.7,0.2-0.9,0l-4.4-4c-0.1-0.1-0.3-0.2-0.5-0.2l-20,0c-5,0-9.3-4-9.3-9
	c0-2.4,1-4.7,2.6-6.2c1.6-1.6,3.8-2.6,6.3-2.6h51.3C66.6,0.9,70.6,4.9,70.6,9.8z"/>
<text transform="matrix(1 0 0 1 7.7871 14.2879)" fill="#FFFFFF" font-size="12px">Click Click</text>
</svg>
