<?xml version="1.0" encoding="utf-8"?>
<!-- Generator: Adobe Illustrator 24.3.0, SVG Export Plug-In . SVG Version: 6.00 Build 0)  -->
<svg version="1.0" id="Layer_1" xmlns="http://www.w3.org/2000/svg" xmlns:xlink="http://www.w3.org/1999/xlink" x="0px" y="0px"
	 viewBox="0 0 500 500" style="enable-background:new 0 0 500 500;" xml:space="preserve">
<style type="text/css">
	.st0{fill:#83BF4F;}
	.st1{fill:#D3976E;}
	.st2{fill:#F29A2E;}
	.st3{fill:#FFD93B;}
	.st4{fill:#E8E8E8;}
	.st5{fill:#89664C;}
	.st6{fill:#FED0AC;}
	.st7{fill:#594640;}
	.st8{fill:#3E4347;}
</style>
<g>
	<path class="st0" d="M196.5,104.9c0-36.3-26.7-65.8-59.9-65.8c-33,0-59.8,29.4-59.8,65.8c0,20,13.9,41.3,21.1,58.1
		c6.2,15,4.9,66.2,4.9,66.2h66.7c0,0-0.2-51.1,6.1-66.2C182.6,146.2,196.5,124.9,196.5,104.9z"/>
	<path class="st1" d="M445.5,325.9c-16.7,13.8-32.2,18.9-32.2,18.9c41.2-46.3,57.8-100,57.8-100c-33.5,36.9-54.3,40.8-54.3,40.8
		c21.4-22.4,50.4-97.8,50.4-97.8S415.3,232,372,252.6C158.2,354.1,169.4,229,169.4,229h-66.7c0,57-58.1,112.2-18.6,197.3
		c48.5,104.1,238,60,307.3,0c89.3-77.3,90-138.9,90-138.9S464.3,310.3,445.5,325.9z"/>
	<path class="st2" d="M122.3,141.8c0,0,0,8.5-14.9,21.5C95.9,173.4,85,183,74.1,183c-17.3,0-27.7-19-3.6-27.8
		C94.5,146.4,109.1,153,122.3,141.8z"/>
	<path class="st3" d="M84.6,125.5c-11.8,0-31.8,18.2-51.2,5.2c-3.3-2.2-8.9-11.3-14.2-5.5c-5.7,6.3,25.3,71.3,103.1,16.6
		C122.3,141.8,117.4,125.5,84.6,125.5z"/>
	<rect x="102.7" y="212.8" class="st4" width="66.9" height="16.3"/>
	<path class="st5" d="M436.2,164c0,0-74.1,62.8-184.2,74.8c-126.2,13.8-97.5,165,15.5,152.6c80.4-8.8,147.8-97.8,147.8-97.8
		l-50.8,13.5c0,0,48.7-38.2,67.8-76.5l-72.6,29.4C359.8,260.1,398.5,240.8,436.2,164z"/>
	<path class="st1" d="M249.5,314c-1.3-8.1-6.6-14.3-13.3-17.7c1.1-2.9,1.5-6.1,1-9.3c-1.5-9.2-10.3-15.3-19.4-13.6
		c-1.7,0.3-3.2,0.9-4.5,1.5c7.4,0.7,13.8,6.3,15.2,14c0.6,3.5,0.1,7-1.2,10.1c5.6,3.2,9.7,8.7,10.9,15.5c1.2,7.4-1.2,14.7-6.1,19.6
		c4.4,2.5,7.7,6.7,8.7,12.1c1.3,8.3-3.3,16.1-10.7,19.1c1.2,0,2.4,0,3.5-0.2c9.3-1.7,15.4-10.5,13.8-19.7c-0.5-3.8-2.5-7-5.2-9.5
		C247.9,330.6,251,322.5,249.5,314z"/>
	<path class="st1" d="M293.8,299.8c-1.3-8.1-6.5-14.5-13.3-17.7c1.1-2.9,1.5-6.1,1-9.3c-1.5-9.2-10.2-15.4-19.4-13.7
		c-1.7,0.3-3.2,0.8-4.5,1.5c7.4,0.7,13.8,6.3,15.2,14c0.6,3.5,0.1,7-1.2,10.1c5.6,3.2,9.7,8.7,10.9,15.6c1.2,7.4-1.2,14.6-6.1,19.6
		c4.4,2.5,7.6,6.7,8.6,12.1c1.4,8.2-3.2,16.1-10.6,19.1c1.2,0.1,2.4,0,3.6-0.2c9.2-1.7,15.3-10.4,13.7-19.7c-0.6-3.8-2.5-7-5.1-9.4
		C292.1,316.4,295.2,308.2,293.8,299.8z"/>
	<path class="st1" d="M339.8,284.2c-2.1-7.8-7.8-13.7-14.9-16.4c0.9-2.9,1.1-6.2,0.2-9.4c-2.4-9-11.7-14.3-20.5-11.9
		c-1.5,0.4-3,1.1-4.4,2c7.4,0.1,14.3,5.1,16.3,12.7c0.9,3.4,0.8,6.9-0.3,10.1c5.9,2.7,10.5,7.7,12.3,14.6c1.9,7.2,0,14.7-4.4,20.1
		c4.6,2.1,8.3,6,9.7,11.3c2.1,8.1-1.9,16.3-9.1,20c1.2-0.1,2.4-0.2,3.6-0.5c9-2.5,14.3-11.8,12-20.7c-1-3.7-3.2-6.8-6-9
		C339.7,300.9,342,292.4,339.8,284.2z"/>
	<path class="st6" d="M119.3,259.9c-10.3,0-18,3.4-23.9,8.6C81.1,313,53.8,360.9,84.2,426.3c14.6,31.2,41.8,49,74.7,57.1
		C87.2,460.8,175.7,259.9,119.3,259.9z"/>
	<path class="st0" d="M184.2,65c0,0,12.3,20.9,33.3,6.6c0,0-10.5,26.5-40.2,16.9L184.2,65z"/>
	<path class="st0" d="M195.1,90.2c0,0,15.2,3.8,30.6-7c0,0-9.1,24.1-30.6,28.2C195.1,111.4,172.7,87.4,195.1,90.2z"/>
	<path class="st0" d="M195.1,111.4c0,0,13.2,7.1,26.2-3.7c0,0-10.3,25.8-36.1,20.7C185.1,128.3,179.8,107.2,195.1,111.4z"/>
	<path class="st0" d="M122.3,44.8c0,0-0.6-10.1-12.2-17.9c0,0,15.2-1,26.5,17.9C136.7,44.8,132.1,51,122.3,44.8z"/>
	<path class="st0" d="M146.8,44.8c0,0,0.6-10.1,12.1-17.9c0,0-15.2-1-26.5,17.9C132.3,44.8,137,51,146.8,44.8z"/>
	<path class="st0" d="M130.1,49.9c0,0-3.7-14.6,9.7-38.8c0,0-3.3,29.7,2.3,44C142,55,135.7,53.9,130.1,49.9z"/>
	<path class="st7" d="M171.2,330.1c7.8,35.8,42.5,67.2,96.4,61.3c80.4-8.8,147.8-97.8,147.8-97.8s-73.5,81.8-158,81.8
		C194.4,375.4,176.2,348.2,171.2,330.1z"/>
	<path class="st8" d="M99.4,105c0-10.5,8.5-21.8,19-21.8c10.4,0,18.9,11.3,18.9,21.8s-8.5,15.1-18.9,15.1
		C107.9,120,99.4,115.5,99.4,105z"/>
</g>
</svg>
