<?xml version="1.0" encoding="utf-8"?>
<!-- Generator: Adobe Illustrator 24.3.0, SVG Export Plug-In . SVG Version: 6.00 Build 0)  -->
<svg version="1.0" id="Layer_1" xmlns="http://www.w3.org/2000/svg" xmlns:xlink="http://www.w3.org/1999/xlink" x="0px" y="0px"
	 viewBox="0 0 24 24" style="enable-background:new 0 0 24 24;" xml:space="preserve">
<style type="text/css">
	.st0{fill-rule:evenodd;clip-rule:evenodd;fill:#D9252A;}
	.st1{fill-rule:evenodd;clip-rule:evenodd;fill:#FFFFFE;}
</style>
<path class="st0" d="M21.6,7.2c-0.2-0.9-0.9-1.5-1.8-1.8C18.3,5,12,5,12,5S5.7,5,4.2,5.4C3.3,5.7,2.6,6.3,2.4,7.2C2,8.8,2,12,2,12
	s0,3.3,0.4,4.8c0.2,0.9,0.9,1.5,1.8,1.8c1.6,0.4,7.8,0.4,7.8,0.4s6.3,0,7.8-0.4c0.9-0.2,1.5-0.9,1.8-1.8C22,15.3,22,12,22,12
	S22,8.8,21.6,7.2z"/>
<path class="st1" d="M10,15l5.2-3l-5.2-3V15z"/>
</svg>
